<?xml version="1.0" encoding="UTF-8"?>
<svg id="Camada_2" data-name="Camada 2" xmlns="http://www.w3.org/2000/svg" viewBox="0 0 907.56 353.99">
  <defs>
    <style>
      .cls-1 {
        fill: #14342b;
      }

      .cls-2 {
        fill: #fff;
      }

      .cls-3 {
        fill: #60935d;
      }

      .cls-4 {
        fill: #f3f3f4;
      }

      .cls-5 {
        fill: #de9151;
      }
    </style>
  </defs>
  <g id="Camada_1-2" data-name="Camada 1">
    <g>
      <g>
        <g>
          <path class="cls-5" d="M404.41,89.4c-1.55,0-3.1-.44-4.46-1.31-.95-.61-1.91-1.19-2.87-1.77-1.34-.81-2.72-1.64-4.11-2.57-2.13-1.42-3.63-2.98-4.83-4.23-.3-.31-.6-.63-.92-.95-3.75-3.74-7.97-7.04-12.54-9.81-8.29-5.01-16.22-8.2-23.56-9.45-4.36-.75-8.63-1.33-12.72-1.73-3.47-.34-6.36-2.83-7.2-6.22-.84-3.39.55-6.94,3.46-8.86l34.7-22.92c8.96-7.32,20.23-11.35,31.81-11.35s22.07,3.76,30.86,10.59l12.57,7.13c1.5.85,3.4,1.75,5.42,2.69,4.24,1.99,9.04,4.25,12.69,7.37,1.88,1.61,2.95,3.98,2.89,6.46-.05,2.48-1.22,4.8-3.18,6.32-.57.44-1.15.87-1.74,1.3l-.32.23c-4.66,3.43-9.73,7.1-15.5,11.19-3.06,2.18-6.18,4.45-9.19,6.64-4.68,3.41-9.52,6.94-14.43,10.3-2.58,1.77-4.1,3.09-5.7,4.49-1.82,1.59-3.71,3.24-6.72,5.15-1.35.86-2.89,1.29-4.43,1.29Z"/>
          <path class="cls-3" d="M619.71,254.59c-12.82,0-25.13-4.72-34.66-13.3l-18.05-16.25c-6.68-5.36-13.38-11.22-19.85-16.88-10.17-8.9-20.7-18.1-31.01-25.21-9.39-6.47-19.46-12.53-29.19-18.39-15.78-9.49-32.1-19.31-46.74-31.53-7.58-6.33-13.88-12.66-19.26-19.38-3.56-4.44-6.84-9.05-9.73-13.12-.43-.61-.78-1.27-1.03-1.95-1.29-3.3-.33-7.18,2.59-9.48,4.48-3.51,12.89-8.11,19.64-11.8,2.77-1.51,6.21-3.39,7.01-3.95,5.25-3.76,10.46-7.93,15.51-11.96,2.2-1.76,4.4-3.52,6.62-5.26,9.84-7.72,21.85-16.12,36.36-19.88,5.14-1.33,10.56-1.98,16.57-1.98,7.77,0,15.38,1.08,22.73,2.13,1.83.26,3.66.52,5.49.76,9.6,1.27,19.01,2.49,28.55,3.32,16.5,1.44,35.5,4.46,51.28,16,7.62,5.58,14.07,12.2,20.3,18.6,5.76,5.92,11.21,11.51,17.41,16.21,11.79,8.93,25.61,16.21,38.96,23.25,5.21,2.75,10.61,5.59,15.83,8.5,13.46,7.5,26.93,15.4,39.95,23.03,10.13,5.94,20.6,12.08,30.96,17.96,8.27,4.7,17.18,8.02,26.63,11.54,7.25,2.7,14.75,5.49,22.01,8.99.01,0,.04.02.04.02,12.26,5.91,22.68,14.16,32.76,22.13,3.75,2.97,7.63,6.04,11.48,8.88,4.64,3.43,9.29,6.85,13.93,10.27,5.64,4.15,7.86,11.13,5.68,17.78-2.19,6.65-8.12,10.95-15.12,10.95h-263.64Z"/>
          <path class="cls-1" d="M27.9,254.59c-9.29,0-16.96-6.07-19.09-15.11-2.13-9.04,2.01-17.9,10.32-22.05l19.83-9.92c13.3-7.59,26.97-15.05,40.2-22.27,27.8-15.16,56.55-30.85,83.12-48.5,14.23-9.46,26.91-18.78,38.74-28.5,2.67-2.2,5.39-4.48,8.01-6.7,8.11-6.83,16.49-13.9,25.65-20.01,8.42-5.63,16.48-9.74,24.63-12.56,3.63-1.26,7.12-2.09,10.49-2.89,4.16-.99,8.08-1.92,11.67-3.54,10.59-4.82,22.37-7.37,34.03-7.37,3.26,0,6.53.2,9.73.59,10.36,1.27,20.02,4.5,29.36,7.63,1.14.38,2.28.76,3.42,1.14,4.4,1.46,9.88,3.28,15.06,7.27,2.37,1.82,4.46,3.74,6.49,5.6,1.2,1.1,2.33,2.14,3.48,3.12,1.87,1.61,3.69,3.1,5.45,4.55,4.92,4.05,9.56,7.87,14.47,13.25.16.18.35.39.57.62.49.53,1.04,1.13,1.28,1.41.04.05,1.16,1.42,1.16,1.42.24.29.46.58.67.87,6.62,9.14,14.05,18.77,23.38,27.21,11.89,10.76,25.56,19.73,36.14,26.35,4.95,3.1,10.08,6.18,15.05,9.15,7.93,4.76,16.13,9.68,24.04,14.93,13.49,8.96,26.53,18.82,39.14,28.35l1.36,1.03c3.4,2.57,6.8,5.12,10.21,7.67.06.04.12.09.18.13l1.67,1.09c7.33,4.78,10.58,13.63,8.08,22.02-2.49,8.39-10.05,14.03-18.8,14.03H27.9Z"/>
        </g>
        <g>
          <g>
            <path class="cls-2" d="M404.41,97.65c-3.17,0-6.25-.9-8.91-2.62-.88-.57-1.78-1.11-2.68-1.65-1.41-.85-2.87-1.73-4.41-2.76-2.89-1.92-4.89-4-6.21-5.38-.29-.31-.54-.57-.81-.84-3.28-3.27-6.97-6.16-10.98-8.58-7.4-4.48-14.36-7.3-20.68-8.38-4.16-.71-8.24-1.27-12.13-1.65-6.93-.68-12.72-5.68-14.39-12.44-1.68-6.76,1.11-13.88,6.92-17.72l34.37-22.69c10.37-8.34,23.38-12.93,36.69-12.93s25.29,4.24,35.43,11.95l12.07,6.84c1.22.69,2.97,1.52,4.82,2.39,4.5,2.12,10.07,4.73,14.57,8.57,3.79,3.23,5.89,7.94,5.78,12.91-.11,4.97-2.42,9.58-6.35,12.64-.63.49-1.28.97-1.93,1.44l-.32.24c-4.68,3.45-9.79,7.14-15.6,11.27-2.93,2.08-5.94,4.27-8.84,6.39l-.26.19c-4.73,3.45-9.62,7.01-14.62,10.44-2.19,1.5-3.4,2.56-4.94,3.9-1.97,1.72-4.19,3.65-7.71,5.9-2.65,1.69-5.71,2.58-8.86,2.58ZM401.18,16.49c-9.67,0-19.11,3.37-26.59,9.48l-.32.26-35.05,23.15c4.28.42,8.75,1.03,13.3,1.81,8.36,1.43,17.26,4.97,26.44,10.52,5.14,3.11,9.88,6.81,14.1,11.02.36.36.7.71,1.03,1.06,1.09,1.14,2.09,2.19,3.46,3.09,1.25.83,2.56,1.62,3.82,2.39,1.02.62,2.05,1.24,3.06,1.89h0c2.47-1.58,3.97-2.88,5.71-4.4,1.72-1.51,3.49-3.05,6.47-5.09,4.81-3.3,9.6-6.79,14.23-10.16l.26-.19c2.94-2.15,5.99-4.36,9.01-6.51,5.73-4.07,10.76-7.7,15.38-11.11l.34-.25c.51-.38,1.03-.76,1.54-1.15-2.81-2.4-7.08-4.41-10.84-6.18-2.18-1.03-4.21-1.98-5.98-2.98l-13.09-7.42-.47-.37c-7.34-5.71-16.51-8.85-25.8-8.85Z"/>
            <path class="cls-4" d="M404.41,97.65c-3.17,0-6.25-.9-8.91-2.62-.88-.57-1.78-1.11-2.68-1.65-1.41-.85-2.87-1.73-4.41-2.76-2.89-1.92-4.89-4-6.21-5.38-.29-.31-.54-.57-.81-.84-3.28-3.27-6.97-6.16-10.98-8.58-7.4-4.48-14.36-7.3-20.68-8.38-4.16-.71-8.24-1.27-12.13-1.65-6.93-.68-12.72-5.68-14.39-12.44-1.68-6.76,1.11-13.88,6.92-17.72l34.37-22.69c10.37-8.34,23.38-12.93,36.69-12.93s25.29,4.24,35.43,11.95l12.07,6.84c1.22.69,2.97,1.52,4.82,2.39,4.5,2.12,10.07,4.73,14.57,8.57,3.79,3.23,5.89,7.94,5.78,12.91-.11,4.97-2.42,9.58-6.35,12.64-.63.49-1.28.97-1.93,1.44l-.32.24c-4.68,3.45-9.79,7.14-15.6,11.27-2.93,2.08-5.94,4.27-8.84,6.39l-.26.19c-4.73,3.45-9.62,7.01-14.62,10.44-2.19,1.5-3.4,2.56-4.94,3.9-1.97,1.72-4.19,3.65-7.71,5.9-2.65,1.69-5.71,2.58-8.86,2.58ZM401.18,16.49c-9.67,0-19.11,3.37-26.59,9.48l-.32.26-35.05,23.15c4.28.42,8.75,1.03,13.3,1.81,8.36,1.43,17.26,4.97,26.44,10.52,5.14,3.11,9.88,6.81,14.1,11.02.36.36.7.71,1.03,1.06,1.09,1.14,2.09,2.19,3.46,3.09,1.25.83,2.56,1.62,3.82,2.39,1.02.62,2.05,1.24,3.06,1.89h0c2.47-1.58,3.97-2.88,5.71-4.4,1.72-1.51,3.49-3.05,6.47-5.09,4.81-3.3,9.6-6.79,14.23-10.16l.26-.19c2.94-2.15,5.99-4.36,9.01-6.51,5.73-4.07,10.76-7.7,15.38-11.11l.34-.25c.51-.38,1.03-.76,1.54-1.15-2.81-2.4-7.08-4.41-10.84-6.18-2.18-1.03-4.21-1.98-5.98-2.98l-13.09-7.42-.47-.37c-7.34-5.71-16.51-8.85-25.8-8.85Z"/>
          </g>
          <g>
            <path class="cls-2" d="M883.36,262.84h-263.64c-14.86,0-29.13-5.48-40.17-15.42l-17.87-16.09c-6.77-5.44-13.46-11.29-19.94-16.96-10.01-8.75-20.34-17.79-30.27-24.63-9.18-6.33-19.13-12.32-28.76-18.11-16.05-9.65-32.64-19.63-47.77-32.26-8.01-6.68-14.68-13.41-20.41-20.55-3.71-4.63-7.06-9.34-10.02-13.49-.84-1.19-1.52-2.47-2.03-3.83-2.61-6.8-.52-14.37,5.22-18.87,5.02-3.94,13.75-8.71,20.77-12.55,1.9-1.04,5.41-2.96,6.28-3.5,5.05-3.62,10.13-7.69,15.04-11.61,2.22-1.78,4.44-3.55,6.68-5.31,10.5-8.24,23.4-17.23,39.38-21.38,5.82-1.51,11.92-2.24,18.64-2.24,8.35,0,16.25,1.12,23.89,2.21l.14.02c1.76.25,3.52.5,5.27.73,9.51,1.26,18.81,2.46,28.18,3.28,17.63,1.53,38.01,4.82,55.43,17.56,8.18,5.98,14.87,12.86,21.34,19.5,5.55,5.7,10.78,11.07,16.48,15.39,11.25,8.53,24.76,15.64,37.83,22.52,5.26,2.77,10.69,5.63,16,8.59,13.5,7.53,26.99,15.43,40.02,23.07l.08.05c10.11,5.93,20.56,12.05,30.86,17.91,7.69,4.37,16.31,7.58,25.43,10.98,7.4,2.76,15.03,5.6,22.59,9.23l.18.09c13.06,6.3,23.84,14.83,34.26,23.07,3.71,2.93,7.53,5.96,11.27,8.72,4.64,3.43,9.28,6.85,13.93,10.27,8.55,6.3,11.94,16.9,8.62,26.99-3.32,10.1-12.33,16.62-22.95,16.62ZM514.5,42.51c-5.31,0-10.05.56-14.5,1.72-13.05,3.39-24.18,11.2-33.34,18.39-2.2,1.72-4.38,3.47-6.56,5.21-5.12,4.09-10.41,8.33-15.86,12.23l-.08.06c-1,.69-2.9,1.76-7.77,4.42-6.15,3.36-14.56,7.96-18.5,11.05l.06.17c2.83,3.98,6.04,8.48,9.45,12.74,5.03,6.28,10.95,12.23,18.11,18.2,14.16,11.81,30.19,21.46,45.7,30.79,9.85,5.92,20.03,12.05,29.63,18.67,10.7,7.38,21.4,16.74,31.75,25.78,6.42,5.61,13.04,11.41,19.6,16.67l.36.3,18.05,16.25c8.01,7.21,18.36,11.18,29.14,11.18h263.64c3.43,0,6.22-2.02,7.29-5.28,1.07-3.25.02-6.54-2.74-8.57-4.65-3.42-9.29-6.85-13.94-10.28-3.96-2.92-7.89-6.03-11.7-9.04-9.71-7.68-19.74-15.62-31.15-21.13l-.12-.06c-6.91-3.33-14.22-6.05-21.28-8.68-9.78-3.65-19-7.08-27.85-12.11-10.4-5.91-20.89-12.06-31.04-18.01l-.1-.06c-12.96-7.6-26.37-15.45-39.71-22.9-5.14-2.86-10.49-5.68-15.66-8.41-13.65-7.19-27.77-14.63-40.1-23.97-6.69-5.07-12.34-10.87-18.33-17.02-6-6.16-12.2-12.53-19.27-17.7-14.15-10.35-31.77-13.11-47.13-14.45-9.71-.85-19.22-2.08-28.92-3.36-1.81-.24-3.62-.5-5.43-.76l-.13-.02c-7.07-1.01-14.38-2.05-21.57-2.05Z"/>
            <path class="cls-4" d="M883.36,262.84h-263.64c-14.86,0-29.13-5.48-40.17-15.42l-17.87-16.09c-6.77-5.44-13.46-11.29-19.94-16.96-10.01-8.75-20.34-17.79-30.27-24.63-9.18-6.33-19.13-12.32-28.76-18.11-16.05-9.65-32.64-19.63-47.77-32.26-8.01-6.68-14.68-13.41-20.41-20.55-3.71-4.63-7.06-9.34-10.02-13.49-.84-1.19-1.52-2.47-2.03-3.83-2.61-6.8-.52-14.37,5.22-18.87,5.02-3.94,13.75-8.71,20.77-12.55,1.9-1.04,5.41-2.96,6.28-3.5,5.05-3.62,10.13-7.69,15.04-11.61,2.22-1.78,4.44-3.55,6.68-5.31,10.5-8.24,23.4-17.23,39.38-21.38,5.82-1.51,11.92-2.24,18.64-2.24,8.35,0,16.25,1.12,23.89,2.21l.14.02c1.76.25,3.52.5,5.27.73,9.51,1.26,18.81,2.46,28.18,3.28,17.63,1.53,38.01,4.82,55.43,17.56,8.18,5.98,14.87,12.86,21.34,19.5,5.55,5.7,10.78,11.07,16.48,15.39,11.25,8.53,24.76,15.64,37.83,22.52,5.26,2.77,10.69,5.63,16,8.59,13.5,7.53,26.99,15.43,40.02,23.07l.08.05c10.11,5.93,20.56,12.05,30.86,17.91,7.69,4.37,16.31,7.58,25.43,10.98,7.4,2.76,15.03,5.6,22.59,9.23l.18.09c13.06,6.3,23.84,14.83,34.26,23.07,3.71,2.93,7.53,5.96,11.27,8.72,4.64,3.43,9.28,6.85,13.93,10.27,8.55,6.3,11.94,16.9,8.62,26.99-3.32,10.1-12.33,16.62-22.95,16.62ZM514.5,42.51c-5.31,0-10.05.56-14.5,1.72-13.05,3.39-24.18,11.2-33.34,18.39-2.2,1.72-4.38,3.47-6.56,5.21-5.12,4.09-10.41,8.33-15.86,12.23l-.08.06c-1,.69-2.9,1.76-7.77,4.42-6.15,3.36-14.56,7.96-18.5,11.05l.06.17c2.83,3.98,6.04,8.48,9.45,12.74,5.03,6.28,10.95,12.23,18.11,18.2,14.16,11.81,30.19,21.46,45.7,30.79,9.85,5.92,20.03,12.05,29.63,18.67,10.7,7.38,21.4,16.74,31.75,25.78,6.42,5.61,13.04,11.41,19.6,16.67l.36.3,18.05,16.25c8.01,7.21,18.36,11.18,29.14,11.18h263.64c3.43,0,6.22-2.02,7.29-5.28,1.07-3.25.02-6.54-2.74-8.57-4.65-3.42-9.29-6.85-13.94-10.28-3.96-2.92-7.89-6.03-11.7-9.04-9.71-7.68-19.74-15.62-31.15-21.13l-.12-.06c-6.91-3.33-14.22-6.05-21.28-8.68-9.78-3.65-19-7.08-27.85-12.11-10.4-5.91-20.89-12.06-31.04-18.01l-.1-.06c-12.96-7.6-26.37-15.45-39.71-22.9-5.14-2.86-10.49-5.68-15.66-8.41-13.65-7.19-27.77-14.63-40.1-23.97-6.69-5.07-12.34-10.87-18.33-17.02-6-6.16-12.2-12.53-19.27-17.7-14.15-10.35-31.77-13.11-47.13-14.45-9.71-.85-19.22-2.08-28.92-3.36-1.81-.24-3.62-.5-5.43-.76l-.13-.02c-7.07-1.01-14.38-2.05-21.57-2.05Z"/>
          </g>
          <g>
            <path class="cls-2" d="M547.07,262.84H27.9c-13.19,0-24.08-8.62-27.11-21.46-3.03-12.84,2.86-25.42,14.65-31.32l19.63-9.82c13.29-7.59,26.92-15.02,40.11-22.21,27.67-15.09,56.25-30.69,82.53-48.15,14-9.3,26.46-18.46,38.07-28.01,2.59-2.12,5.23-4.36,7.79-6.51l.14-.12c8.29-6.98,16.84-14.2,26.39-20.57,9.01-6.02,17.68-10.44,26.51-13.5,4.03-1.4,7.88-2.31,11.29-3.12,3.92-.93,7.31-1.74,10.18-3.03,11.65-5.3,24.59-8.1,37.42-8.1,3.59,0,7.2.22,10.73.65,11.2,1.37,21.25,4.74,30.97,8,1.13.38,2.26.76,3.39,1.13,4.73,1.57,11.2,3.72,17.49,8.56,2.64,2.03,4.97,4.17,7.03,6.05,1.19,1.09,2.25,2.06,3.27,2.94,1.82,1.57,3.61,3.03,5.33,4.45,4.93,4.05,10.02,8.24,15.32,14.06.15.17.27.3.41.45l.12.13c.57.62,1.22,1.33,1.5,1.66.02.03,1.27,1.56,1.27,1.56.34.42.66.83.96,1.25,6.35,8.77,13.45,17.98,22.22,25.92,11.42,10.33,24.69,19.04,34.98,25.47,4.89,3.06,9.99,6.12,14.91,9.07,8.01,4.8,16.29,9.77,24.36,15.13,13.69,9.1,26.82,19.02,39.52,28.62l1.39,1.05c3.34,2.52,6.69,5.04,10.05,7.55l1.54,1.01c10.41,6.79,15.03,19.36,11.48,31.27-3.54,11.91-14.27,19.92-26.7,19.92ZM315.5,63.42c-10.49,0-21.08,2.29-30.62,6.63-4.33,1.96-8.83,3.03-13.18,4.06-3.17.75-6.46,1.53-9.7,2.66-7.48,2.59-14.92,6.39-22.75,11.63-8.78,5.86-16.98,12.77-24.91,19.45l-.15.13c-2.6,2.19-5.29,4.45-7.95,6.64-12.05,9.9-24.94,19.38-39.41,29-26.88,17.86-55.78,33.62-83.73,48.87-13.21,7.21-26.84,14.64-40.06,22.19l-.4.21-19.83,9.92c-4.89,2.45-7.24,7.46-5.98,12.78,1.26,5.32,5.6,8.76,11.07,8.76h519.17c5.07,0,9.45-3.27,10.9-8.13,1.45-4.86-.44-9.99-4.69-12.77l-1.67-1.09c-.22-.14-.42-.28-.61-.42-3.42-2.55-6.84-5.12-10.25-7.7l-1.37-1.03c-12.53-9.47-25.46-19.24-38.73-28.06-7.76-5.15-15.87-10.02-23.72-14.73-4.99-3-10.16-6.1-15.18-9.24-10.86-6.8-24.92-16.03-37.3-27.22-9.89-8.95-17.63-18.98-24.52-28.49-.13-.18-.25-.34-.39-.5h0s-.83-1.02-1.06-1.3c-.24-.27-.66-.73-1.03-1.14l-.12-.13c-.2-.22-.38-.41-.54-.59-4.46-4.89-8.68-8.36-13.56-12.38-1.79-1.47-3.64-2.99-5.58-4.66-1.23-1.05-2.4-2.12-3.64-3.26-2.04-1.87-3.91-3.59-5.99-5.18-4.08-3.14-8.63-4.65-12.63-5.98-1.14-.38-2.29-.76-3.44-1.15-8.95-3-18.2-6.1-27.74-7.27-2.87-.35-5.81-.53-8.73-.53Z"/>
            <path class="cls-4" d="M547.07,262.84H27.9c-13.19,0-24.08-8.62-27.11-21.46-3.03-12.84,2.86-25.42,14.65-31.32l19.63-9.82c13.29-7.59,26.92-15.02,40.11-22.21,27.67-15.09,56.25-30.69,82.53-48.15,14-9.3,26.46-18.46,38.07-28.01,2.59-2.12,5.23-4.36,7.79-6.51l.14-.12c8.29-6.98,16.84-14.2,26.39-20.57,9.01-6.02,17.68-10.44,26.51-13.5,4.03-1.4,7.88-2.31,11.29-3.12,3.92-.93,7.31-1.74,10.18-3.03,11.65-5.3,24.59-8.1,37.42-8.1,3.59,0,7.2.22,10.73.65,11.2,1.37,21.25,4.74,30.97,8,1.13.38,2.26.76,3.39,1.13,4.73,1.57,11.2,3.72,17.49,8.56,2.64,2.03,4.97,4.17,7.03,6.05,1.19,1.09,2.25,2.06,3.27,2.94,1.82,1.57,3.61,3.03,5.33,4.45,4.93,4.05,10.02,8.24,15.32,14.06.15.17.27.3.41.45l.12.13c.57.62,1.22,1.33,1.5,1.66.02.03,1.27,1.56,1.27,1.56.34.42.66.83.96,1.25,6.35,8.77,13.45,17.98,22.22,25.92,11.42,10.33,24.69,19.04,34.98,25.47,4.89,3.06,9.99,6.12,14.91,9.07,8.01,4.8,16.29,9.77,24.36,15.13,13.69,9.1,26.82,19.02,39.52,28.62l1.39,1.05c3.34,2.52,6.69,5.04,10.05,7.55l1.54,1.01c10.41,6.79,15.03,19.36,11.48,31.27-3.54,11.91-14.27,19.92-26.7,19.92ZM315.5,63.42c-10.49,0-21.08,2.29-30.62,6.63-4.33,1.96-8.83,3.03-13.18,4.06-3.17.75-6.46,1.53-9.7,2.66-7.48,2.59-14.92,6.39-22.75,11.63-8.78,5.86-16.98,12.77-24.91,19.45l-.15.13c-2.6,2.19-5.29,4.45-7.95,6.64-12.05,9.9-24.94,19.38-39.41,29-26.88,17.86-55.78,33.62-83.73,48.87-13.21,7.21-26.84,14.64-40.06,22.19l-.4.21-19.83,9.92c-4.89,2.45-7.24,7.46-5.98,12.78,1.26,5.32,5.6,8.76,11.07,8.76h519.17c5.07,0,9.45-3.27,10.9-8.13,1.45-4.86-.44-9.99-4.69-12.77l-1.67-1.09c-.22-.14-.42-.28-.61-.42-3.42-2.55-6.84-5.12-10.25-7.7l-1.37-1.03c-12.53-9.47-25.46-19.24-38.73-28.06-7.76-5.15-15.87-10.02-23.72-14.73-4.99-3-10.16-6.1-15.18-9.24-10.86-6.8-24.92-16.03-37.3-27.22-9.89-8.95-17.63-18.98-24.52-28.49-.13-.18-.25-.34-.39-.5h0s-.83-1.02-1.06-1.3c-.24-.27-.66-.73-1.03-1.14l-.12-.13c-.2-.22-.38-.41-.54-.59-4.46-4.89-8.68-8.36-13.56-12.38-1.79-1.47-3.64-2.99-5.58-4.66-1.23-1.05-2.4-2.12-3.64-3.26-2.04-1.87-3.91-3.59-5.99-5.18-4.08-3.14-8.63-4.65-12.63-5.98-1.14-.38-2.29-.76-3.44-1.15-8.95-3-18.2-6.1-27.74-7.27-2.87-.35-5.81-.53-8.73-.53Z"/>
          </g>
        </g>
      </g>
      <g>
        <g>
          <path class="cls-4" d="M224.73,323.12l8.13,17.41c.77,1.61,1.42,2.66,1.94,3.16s1.3.84,2.37,1.01c2.06.32,3.1,1.36,3.1,3.14,0,2.09-1.26,3.6-3.78,4.51-2.52.92-6.65,1.38-12.38,1.38-6.48,0-11.28-.27-14.4-.82-1.43-.26-2.57-.78-3.42-1.57-.85-.79-1.27-1.74-1.27-2.86,0-.86.22-1.53.67-2,.44-.47,1.27-.91,2.47-1.31,1.35-.46,2.02-1.23,2.02-2.32,0-1.92-1.16-3.05-3.48-3.4-2.49-.34-6.01-.52-10.53-.52-3.81,0-6.09.23-6.84.69-.46.29-.86.8-1.2,1.55-.34.75-.52,1.46-.52,2.15,0,.63.12,1.04.37,1.23.24.19,1.04.49,2.39.92,1.75.52,2.62,1.55,2.62,3.1,0,3.41-4.08,5.12-12.25,5.12-4.64,0-8.06-.32-10.23-.95-2.01-.6-3.01-1.92-3.01-3.96,0-.89.22-1.58.67-2.06.44-.49,1.24-.93,2.39-1.33,1.86-.66,3.27-1.58,4.24-2.77.96-1.19,2.33-3.73,4.11-7.63l6.06-13.29c2.24-4.87,3.73-8.52,4.49-10.94.76-2.42,1.15-4.79,1.18-7.12.03-2.46.18-4.18.45-5.14s.88-1.9,1.83-2.82c1.98-2.01,4.5-3.01,7.57-3.01,2.9,0,5.66,1.13,8.3,3.4,3.67,3.1,9,12.11,16,27.05ZM194.8,328.53h8.43c1.55,0,2.32-.34,2.32-1.03,0-.95-1.08-3.27-3.22-6.97-.97-1.69-1.72-2.82-2.24-3.4s-1.06-.86-1.63-.86c-1.03,0-1.89.96-2.58,2.88-.12.26-.53,1.28-1.25,3.05-1.2,2.92-1.81,4.67-1.81,5.25,0,.72.66,1.07,1.98,1.07Z"/>
          <path class="cls-4" d="M370.95,352.79l-5.76.04c-4.04.06-6.99.14-8.86.26-1.66.14-2.85.22-3.57.22-1.75,0-3.14-.45-4.17-1.33-1-.89-1.51-1.95-1.51-3.18,0-.8.19-1.43.56-1.89.37-.46,1.28-1.18,2.71-2.15.83-.57,1.4-1.47,1.72-2.69.32-1.22.66-3.83,1.03-7.85.54-6.25.82-13.95.82-23.09,0-3.35-.22-5.58-.67-6.69s-1.48-2.01-3.12-2.73c-1.89-.8-2.84-1.98-2.84-3.53,0-1.26.57-2.29,1.7-3.1,1.13-.8,2.59-1.2,4.36-1.2.97,0,2.22.04,3.74.13,2.52.12,5.25.17,8.17.17,2.15,0,6.38-.09,12.68-.26,1.98-.06,3.77-.09,5.38-.09,3.81,0,6.89.31,9.22.92,2.34.62,4.36,1.66,6.08,3.12,2.81,2.38,4.21,5.56,4.21,9.55,0,1.98-.42,3.91-1.25,5.78-.83,1.88-1.95,3.38-3.35,4.49-1,.8-1.51,1.53-1.51,2.19,0,.72.6,1.32,1.81,1.81,2.35.95,4.49,2.54,6.41,4.77,1.98,2.32,2.97,5.23,2.97,8.73,0,4.13-1.51,7.9-4.52,11.31-3.98,4.5-9.88,6.75-17.67,6.75-1.06,0-3.67-.07-7.83-.21-3.78-.14-6.11-.23-6.97-.26ZM373.92,306.13v8.86c0,1.4.18,2.39.54,2.97.36.57.98.86,1.87.86,2.12,0,3.68-.65,4.69-1.96,1-1.3,1.5-3.35,1.5-6.13s-.52-4.78-1.55-6.26c-1.03-1.48-2.49-2.21-4.39-2.21-1,0-1.7.28-2.09.84-.39.56-.58,1.57-.58,3.03ZM373.92,330.9v4.08c0,3.76.27,6.25.82,7.48.54,1.23,1.65,1.85,3.31,1.85,4.36,0,6.54-2.55,6.54-7.65,0-6.36-2.44-9.55-7.31-9.55-1.26,0-2.14.27-2.62.82-.49.54-.73,1.53-.73,2.97Z"/>
          <path class="cls-4" d="M549.25,292.93c4.19,0,8.23.92,12.13,2.75,1.83.86,3.11,1.29,3.83,1.29.52,0,1.35-.13,2.49-.39.37-.09.79-.13,1.25-.13,1.49,0,2.8.69,3.91,2.06,2.75,3.33,4.13,7.45,4.13,12.38,0,3.47-1.19,6.01-3.57,7.61-1.29.86-2.74,1.29-4.34,1.29-1.46,0-2.65-.31-3.57-.95-.92-.63-1.81-1.75-2.67-3.35-1.23-2.26-2.24-3.89-3.01-4.88-.77-.99-1.72-1.88-2.84-2.69-2.78-1.95-5.69-2.92-8.73-2.92s-5.3,1.07-7.03,3.2c-1.73,2.14-2.6,5-2.6,8.58,0,4.93,1.25,9.45,3.74,13.55,3.38,5.48,8.23,8.21,14.53,8.21,2.32,0,4.62-.39,6.9-1.16,2.28-.77,4.05-1.78,5.31-3.01,1.09-1.03,1.98-1.55,2.67-1.55,1,0,1.86.47,2.58,1.4s1.08,2.06,1.08,3.38c0,1.66-.5,3.53-1.51,5.59-1,2.06-2.21,3.68-3.61,4.86-.6.49-1.85.92-3.74,1.29-1.09.2-2.54.73-4.34,1.59-4.24,2.04-8.66,3.05-13.24,3.05s-9.56-1.07-14.32-3.22c-5.53-2.49-9.9-6.32-13.12-11.48-3.15-5.02-4.73-10.26-4.73-15.74,0-6.36,1.98-12.17,5.93-17.41,3.44-4.56,7.93-8.04,13.46-10.45,4.21-1.83,8.56-2.75,13.03-2.75Z"/>
          <path class="cls-4" d="M713.19,312.93v19.74c0,4.44.39,7.31,1.16,8.6.95,1.52,2.94,2.28,5.98,2.28,3.27,0,5.85-.72,7.74-2.15,1.89-1.43,3.21-3.67,3.96-6.71.43-1.86,1.4-2.8,2.92-2.8s2.76.68,3.72,2.04,1.44,3.13,1.44,5.31c0,3.55-1.32,7.35-3.96,11.4-.83,1.29-1.56,2.17-2.19,2.64-.63.47-1.39.71-2.28.71l-9.55-1.16h-30.06c-1.98,0-3.37-.23-4.17-.69-1.18-.66-1.76-1.65-1.76-2.97,0-.8.19-1.4.58-1.78.39-.39,1.33-.94,2.82-1.66,1.63-.77,2.68-1.86,3.14-3.27.37-1.17.56-4.6.56-10.28,0-2.64-.07-6.43-.21-11.39-.14-4.76-.23-8.34-.26-10.75,0-2.29-.18-3.86-.54-4.71-.36-.84-1.11-1.45-2.26-1.83-1.89-.66-3.1-1.19-3.61-1.59-.92-.72-1.38-1.53-1.38-2.45,0-2.09,1.73-3.68,5.2-4.77,2.95-.95,6.91-1.42,11.87-1.42,5.56,0,9.72.29,12.47.86,3.55.77,5.33,2.32,5.33,4.64,0,.95-.24,1.65-.71,2.11-.47.46-1.63,1.08-3.46,1.85-1.09.49-1.78,1.32-2.06,2.49-.29,1.18-.43,3.74-.43,7.7Z"/>
        </g>
        <g>
          <circle class="cls-4" cx="43.27" cy="324.61" r="11.79"/>
          <circle class="cls-4" cx="864.29" cy="324.61" r="11.79"/>
        </g>
      </g>
    </g>
  </g>
</svg>